<svg xmlns="http://www.w3.org/2000/svg" viewBox="0 0 291.31 683.97"><defs><style>.cls-1{fill:#1d1d1b;}</style></defs><g id="Слой_2" data-name="Слой 2"><g id="Слой_1-2" data-name="Слой 1"><rect class="cls-1" x="277.44" y="232.54" width="13.87" height="13.68"/><rect class="cls-1" x="235.82" y="328.31" width="13.87" height="13.67"/><rect class="cls-1" x="221.95" y="670.3" width="13.87" height="13.67"/><rect class="cls-1" x="221.95" y="259.9" width="13.87" height="13.68"/><rect class="cls-1" x="221.95" y="218.87" width="13.87" height="13.67"/><rect class="cls-1" x="208.08" y="670.3" width="13.87" height="13.67"/><rect class="cls-1" x="208.08" y="656.61" width="13.87" height="13.68"/><rect class="cls-1" x="208.08" y="424.06" width="13.87" height="13.68"/><rect class="cls-1" x="208.08" y="410.38" width="13.87" height="13.67"/><rect class="cls-1" x="208.08" y="300.95" width="13.87" height="13.67"/><rect class="cls-1" x="194.2" y="670.3" width="13.87" height="13.67"/><rect class="cls-1" x="194.2" y="656.61" width="13.87" height="13.68"/><rect class="cls-1" x="194.2" y="642.94" width="13.87" height="13.67"/><rect class="cls-1" x="194.2" y="437.74" width="13.87" height="13.67"/><rect class="cls-1" x="194.2" y="424.06" width="13.87" height="13.68"/><rect class="cls-1" x="194.2" y="410.38" width="13.87" height="13.67"/><rect class="cls-1" x="194.2" y="396.7" width="13.87" height="13.68"/><rect class="cls-1" x="194.2" y="383.02" width="13.87" height="13.67"/><rect class="cls-1" x="194.2" y="369.34" width="13.87" height="13.68"/><rect class="cls-1" x="194.2" y="355.66" width="13.87" height="13.67"/><rect class="cls-1" x="194.2" y="54.72" width="13.87" height="13.67"/><rect class="cls-1" x="180.33" y="670.3" width="13.87" height="13.67"/><rect class="cls-1" x="180.33" y="656.61" width="13.87" height="13.68"/><rect class="cls-1" x="180.33" y="642.94" width="13.87" height="13.67"/><rect class="cls-1" x="180.33" y="615.58" width="13.87" height="13.67"/><rect class="cls-1" x="180.33" y="601.89" width="13.87" height="13.68"/><rect class="cls-1" x="180.33" y="588.22" width="13.87" height="13.67"/><rect class="cls-1" x="180.33" y="574.53" width="13.87" height="13.68"/><rect class="cls-1" x="180.33" y="560.86" width="13.87" height="13.67"/><rect class="cls-1" x="180.33" y="547.18" width="13.87" height="13.68"/><rect class="cls-1" x="180.33" y="533.5" width="13.87" height="13.67"/><rect class="cls-1" x="180.33" y="519.82" width="13.87" height="13.68"/><rect class="cls-1" x="180.33" y="506.13" width="13.87" height="13.68"/><rect class="cls-1" x="180.33" y="492.46" width="13.87" height="13.67"/><rect class="cls-1" x="180.33" y="478.77" width="13.87" height="13.68"/><rect class="cls-1" x="180.33" y="465.1" width="13.87" height="13.67"/><rect class="cls-1" x="180.33" y="451.41" width="13.87" height="13.68"/><rect class="cls-1" x="180.33" y="437.74" width="13.87" height="13.67"/><rect class="cls-1" x="180.33" y="424.06" width="13.87" height="13.68"/><rect class="cls-1" x="180.33" y="410.38" width="13.87" height="13.67"/><rect class="cls-1" x="180.33" y="396.7" width="13.87" height="13.68"/><rect class="cls-1" x="180.33" y="383.02" width="13.87" height="13.67"/><rect class="cls-1" x="180.33" y="369.34" width="13.87" height="13.68"/><rect class="cls-1" x="180.33" y="355.66" width="13.87" height="13.67"/><rect class="cls-1" x="180.33" y="341.98" width="13.87" height="13.68"/><rect class="cls-1" x="180.33" y="328.31" width="13.87" height="13.67"/><rect class="cls-1" x="180.33" y="314.62" width="13.87" height="13.68"/><rect class="cls-1" x="180.33" y="259.9" width="13.87" height="13.68"/><rect class="cls-1" x="180.33" y="218.87" width="13.87" height="13.67"/><rect class="cls-1" x="180.33" y="205.19" width="13.87" height="13.68"/><rect class="cls-1" x="180.33" y="191.51" width="13.87" height="13.67"/><rect class="cls-1" x="180.33" y="68.39" width="13.87" height="13.68"/><rect class="cls-1" x="180.33" y="54.72" width="13.87" height="13.67"/><rect class="cls-1" x="180.33" y="41.03" width="13.87" height="13.68"/><rect class="cls-1" x="166.46" y="670.3" width="13.87" height="13.67"/><rect class="cls-1" x="166.46" y="656.61" width="13.87" height="13.68"/><rect class="cls-1" x="166.46" y="642.94" width="13.87" height="13.67"/><rect class="cls-1" x="166.46" y="629.25" width="13.87" height="13.68"/><rect class="cls-1" x="166.46" y="615.58" width="13.87" height="13.67"/><rect class="cls-1" x="166.46" y="601.89" width="13.87" height="13.68"/><rect class="cls-1" x="166.46" y="588.22" width="13.87" height="13.67"/><rect class="cls-1" x="166.46" y="574.53" width="13.87" height="13.68"/><rect class="cls-1" x="166.46" y="560.86" width="13.87" height="13.67"/><rect class="cls-1" x="166.46" y="547.18" width="13.87" height="13.68"/><rect class="cls-1" x="166.46" y="533.5" width="13.87" height="13.67"/><rect class="cls-1" x="166.46" y="519.82" width="13.87" height="13.68"/><rect class="cls-1" x="166.46" y="506.13" width="13.87" height="13.68"/><rect class="cls-1" x="166.46" y="492.46" width="13.87" height="13.67"/><rect class="cls-1" x="166.46" y="478.77" width="13.87" height="13.68"/><rect class="cls-1" x="166.46" y="465.1" width="13.87" height="13.67"/><rect class="cls-1" x="166.46" y="451.41" width="13.87" height="13.68"/><rect class="cls-1" x="166.46" y="437.74" width="13.87" height="13.67"/><rect class="cls-1" x="166.46" y="424.06" width="13.87" height="13.68"/><rect class="cls-1" x="166.46" y="410.38" width="13.87" height="13.67"/><rect class="cls-1" x="166.46" y="396.7" width="13.87" height="13.68"/><rect class="cls-1" x="166.46" y="383.02" width="13.87" height="13.67"/><rect class="cls-1" x="166.46" y="369.34" width="13.87" height="13.68"/><rect class="cls-1" x="166.46" y="355.66" width="13.87" height="13.67"/><rect class="cls-1" x="166.46" y="341.98" width="13.87" height="13.68"/><rect class="cls-1" x="166.46" y="328.31" width="13.87" height="13.67"/><rect class="cls-1" x="166.46" y="314.62" width="13.87" height="13.68"/><rect class="cls-1" x="166.46" y="205.19" width="13.87" height="13.68"/><rect class="cls-1" x="166.46" y="191.51" width="13.87" height="13.67"/><rect class="cls-1" x="166.46" y="177.83" width="13.87" height="13.68"/><rect class="cls-1" x="166.46" y="109.44" width="13.87" height="13.67"/><rect class="cls-1" x="166.46" y="95.75" width="13.87" height="13.68"/><rect class="cls-1" x="166.46" y="82.08" width="13.87" height="13.67"/><rect class="cls-1" x="166.46" y="68.39" width="13.87" height="13.68"/><rect class="cls-1" x="166.46" y="54.72" width="13.87" height="13.67"/><rect class="cls-1" x="166.46" y="41.03" width="13.87" height="13.68"/><rect class="cls-1" x="166.46" y="27.36" width="13.87" height="13.67"/><rect class="cls-1" x="152.59" y="670.3" width="13.87" height="13.67"/><rect class="cls-1" x="152.59" y="656.61" width="13.87" height="13.68"/><rect class="cls-1" x="152.59" y="642.94" width="13.87" height="13.67"/><rect class="cls-1" x="152.59" y="629.25" width="13.87" height="13.68"/><rect class="cls-1" x="152.59" y="615.58" width="13.87" height="13.67"/><rect class="cls-1" x="152.59" y="601.89" width="13.87" height="13.68"/><rect class="cls-1" x="152.59" y="588.22" width="13.87" height="13.67"/><rect class="cls-1" x="152.59" y="574.53" width="13.87" height="13.68"/><rect class="cls-1" x="152.59" y="560.86" width="13.87" height="13.67"/><rect class="cls-1" x="152.59" y="547.18" width="13.87" height="13.68"/><rect class="cls-1" x="152.59" y="533.5" width="13.87" height="13.67"/><rect class="cls-1" x="152.59" y="519.82" width="13.87" height="13.68"/><rect class="cls-1" x="152.59" y="506.13" width="13.87" height="13.68"/><rect class="cls-1" x="152.59" y="492.46" width="13.87" height="13.67"/><rect class="cls-1" x="152.59" y="478.77" width="13.87" height="13.68"/><rect class="cls-1" x="152.59" y="465.1" width="13.87" height="13.67"/><rect class="cls-1" x="152.59" y="451.41" width="13.87" height="13.68"/><rect class="cls-1" x="152.59" y="437.74" width="13.87" height="13.67"/><rect class="cls-1" x="152.59" y="424.06" width="13.87" height="13.68"/><rect class="cls-1" x="152.59" y="410.38" width="13.87" height="13.67"/><rect class="cls-1" x="152.59" y="396.7" width="13.87" height="13.68"/><rect class="cls-1" x="152.59" y="383.02" width="13.87" height="13.67"/><rect class="cls-1" x="152.59" y="369.34" width="13.87" height="13.68"/><rect class="cls-1" x="152.59" y="355.66" width="13.87" height="13.67"/><rect class="cls-1" x="152.59" y="341.98" width="13.87" height="13.68"/><rect class="cls-1" x="152.59" y="328.31" width="13.87" height="13.67"/><rect class="cls-1" x="152.59" y="314.62" width="13.87" height="13.68"/><rect class="cls-1" x="152.59" y="218.87" width="13.87" height="13.67"/><rect class="cls-1" x="152.59" y="205.19" width="13.87" height="13.68"/><rect class="cls-1" x="152.59" y="191.51" width="13.87" height="13.67"/><rect class="cls-1" x="152.59" y="177.83" width="13.87" height="13.68"/><rect class="cls-1" x="152.59" y="164.15" width="13.87" height="13.67"/><rect class="cls-1" x="152.59" y="123.11" width="13.87" height="13.68"/><rect class="cls-1" x="152.59" y="109.44" width="13.87" height="13.67"/><rect class="cls-1" x="152.59" y="95.75" width="13.87" height="13.68"/><rect class="cls-1" x="152.59" y="82.08" width="13.87" height="13.67"/><rect class="cls-1" x="152.59" y="68.39" width="13.87" height="13.68"/><rect class="cls-1" x="152.59" y="54.72" width="13.87" height="13.67"/><rect class="cls-1" x="152.59" y="41.03" width="13.87" height="13.68"/><rect class="cls-1" x="152.59" y="27.36" width="13.87" height="13.67"/><rect class="cls-1" x="152.59" y="13.67" width="13.87" height="13.68"/><rect class="cls-1" x="138.72" y="670.3" width="13.87" height="13.67"/><rect class="cls-1" x="138.72" y="642.94" width="13.87" height="13.67"/><rect class="cls-1" x="138.72" y="629.25" width="13.87" height="13.68"/><rect class="cls-1" x="138.72" y="615.58" width="13.87" height="13.67"/><rect class="cls-1" x="138.72" y="601.89" width="13.87" height="13.68"/><rect class="cls-1" x="138.72" y="588.22" width="13.87" height="13.67"/><rect class="cls-1" x="138.72" y="574.53" width="13.87" height="13.68"/><rect class="cls-1" x="138.72" y="560.86" width="13.87" height="13.67"/><rect class="cls-1" x="138.72" y="547.18" width="13.87" height="13.68"/><rect class="cls-1" x="138.72" y="533.5" width="13.87" height="13.67"/><rect class="cls-1" x="138.72" y="519.82" width="13.87" height="13.68"/><rect class="cls-1" x="138.72" y="506.13" width="13.87" height="13.68"/><rect class="cls-1" x="138.72" y="492.46" width="13.87" height="13.67"/><rect class="cls-1" x="138.72" y="478.77" width="13.87" height="13.68"/><rect class="cls-1" x="138.72" y="465.1" width="13.87" height="13.67"/><rect class="cls-1" x="138.72" y="451.41" width="13.87" height="13.68"/><rect class="cls-1" x="138.72" y="437.74" width="13.87" height="13.67"/><rect class="cls-1" x="138.72" y="424.06" width="13.87" height="13.68"/><rect class="cls-1" x="138.72" y="410.38" width="13.87" height="13.67"/><rect class="cls-1" x="138.72" y="396.7" width="13.87" height="13.68"/><rect class="cls-1" x="138.72" y="383.02" width="13.87" height="13.67"/><rect class="cls-1" x="138.72" y="369.34" width="13.87" height="13.68"/><rect class="cls-1" x="138.72" y="355.66" width="13.87" height="13.67"/><rect class="cls-1" x="138.72" y="341.98" width="13.87" height="13.68"/><rect class="cls-1" x="138.72" y="328.31" width="13.87" height="13.67"/><rect class="cls-1" x="138.72" y="314.62" width="13.87" height="13.68"/><rect class="cls-1" x="138.72" y="300.95" width="13.87" height="13.67"/><rect class="cls-1" x="138.72" y="232.54" width="13.87" height="13.68"/><rect class="cls-1" x="138.72" y="218.87" width="13.87" height="13.67"/><rect class="cls-1" x="138.72" y="205.19" width="13.87" height="13.68"/><rect class="cls-1" x="138.72" y="191.51" width="13.87" height="13.67"/><rect class="cls-1" x="138.72" y="177.83" width="13.87" height="13.68"/><rect class="cls-1" x="138.72" y="164.15" width="13.87" height="13.67"/><rect class="cls-1" x="138.72" y="123.11" width="13.87" height="13.68"/><rect class="cls-1" x="138.72" y="109.44" width="13.87" height="13.67"/><rect class="cls-1" x="138.72" y="95.75" width="13.87" height="13.68"/><rect class="cls-1" x="138.72" y="82.08" width="13.87" height="13.67"/><rect class="cls-1" x="138.72" y="68.39" width="13.87" height="13.68"/><rect class="cls-1" x="138.72" y="54.72" width="13.87" height="13.67"/><rect class="cls-1" x="138.72" y="41.03" width="13.87" height="13.68"/><rect class="cls-1" x="138.72" y="27.36" width="13.87" height="13.67"/><rect class="cls-1" x="138.72" y="13.67" width="13.87" height="13.68"/><rect class="cls-1" x="138.72" width="13.87" height="13.67"/><rect class="cls-1" x="124.85" y="437.74" width="13.87" height="13.67"/><rect class="cls-1" x="124.85" y="424.06" width="13.87" height="13.68"/><rect class="cls-1" x="124.85" y="410.38" width="13.87" height="13.67"/><rect class="cls-1" x="124.85" y="396.7" width="13.87" height="13.68"/><rect class="cls-1" x="124.85" y="383.02" width="13.87" height="13.67"/><rect class="cls-1" x="124.85" y="369.34" width="13.87" height="13.68"/><rect class="cls-1" x="124.85" y="355.66" width="13.87" height="13.67"/><rect class="cls-1" x="124.85" y="341.98" width="13.87" height="13.68"/><rect class="cls-1" x="124.85" y="328.31" width="13.87" height="13.67"/><rect class="cls-1" x="124.85" y="314.62" width="13.87" height="13.68"/><rect class="cls-1" x="124.85" y="300.95" width="13.87" height="13.67"/><rect class="cls-1" x="124.85" y="246.23" width="13.87" height="13.67"/><rect class="cls-1" x="124.85" y="232.54" width="13.87" height="13.68"/><rect class="cls-1" x="124.85" y="218.87" width="13.87" height="13.67"/><rect class="cls-1" x="124.85" y="205.19" width="13.87" height="13.68"/><rect class="cls-1" x="124.85" y="191.51" width="13.87" height="13.67"/><rect class="cls-1" x="124.85" y="177.83" width="13.87" height="13.68"/><rect class="cls-1" x="124.85" y="164.15" width="13.87" height="13.67"/><rect class="cls-1" x="124.85" y="150.47" width="13.87" height="13.68"/><rect class="cls-1" x="124.85" y="136.79" width="13.87" height="13.67"/><rect class="cls-1" x="124.85" y="123.11" width="13.87" height="13.68"/><rect class="cls-1" x="124.85" y="109.44" width="13.87" height="13.67"/><rect class="cls-1" x="124.85" y="95.75" width="13.87" height="13.68"/><rect class="cls-1" x="124.85" y="82.08" width="13.87" height="13.67"/><rect class="cls-1" x="124.85" y="68.39" width="13.87" height="13.68"/><rect class="cls-1" x="124.85" y="54.72" width="13.87" height="13.67"/><rect class="cls-1" x="124.85" y="41.03" width="13.87" height="13.68"/><rect class="cls-1" x="124.85" y="27.36" width="13.87" height="13.67"/><rect class="cls-1" x="124.85" y="13.67" width="13.87" height="13.68"/><rect class="cls-1" x="124.85" width="13.87" height="13.67"/><rect class="cls-1" x="110.97" y="465.1" width="13.87" height="13.67"/><rect class="cls-1" x="110.97" y="451.41" width="13.87" height="13.68"/><rect class="cls-1" x="110.97" y="437.74" width="13.87" height="13.67"/><rect class="cls-1" x="110.97" y="424.06" width="13.87" height="13.68"/><rect class="cls-1" x="110.97" y="410.38" width="13.87" height="13.67"/><rect class="cls-1" x="110.97" y="396.7" width="13.87" height="13.68"/><rect class="cls-1" x="110.97" y="383.02" width="13.87" height="13.67"/><rect class="cls-1" x="110.97" y="369.34" width="13.87" height="13.68"/><rect class="cls-1" x="110.97" y="355.66" width="13.87" height="13.67"/><rect class="cls-1" x="110.97" y="341.98" width="13.87" height="13.68"/><rect class="cls-1" x="110.97" y="328.31" width="13.87" height="13.67"/><rect class="cls-1" x="110.97" y="314.62" width="13.87" height="13.68"/><rect class="cls-1" x="110.97" y="300.95" width="13.87" height="13.67"/><rect class="cls-1" x="110.97" y="287.26" width="13.87" height="13.68"/><rect class="cls-1" x="110.97" y="273.59" width="13.87" height="13.67"/><rect class="cls-1" x="110.97" y="246.23" width="13.87" height="13.67"/><rect class="cls-1" x="110.97" y="232.54" width="13.87" height="13.68"/><rect class="cls-1" x="110.97" y="218.87" width="13.87" height="13.67"/><rect class="cls-1" x="110.97" y="205.19" width="13.87" height="13.68"/><rect class="cls-1" x="110.97" y="191.51" width="13.87" height="13.67"/><rect class="cls-1" x="110.97" y="177.83" width="13.87" height="13.68"/><rect class="cls-1" x="110.97" y="164.15" width="13.87" height="13.67"/><rect class="cls-1" x="110.97" y="150.47" width="13.87" height="13.68"/><rect class="cls-1" x="110.97" y="136.79" width="13.87" height="13.67"/><rect class="cls-1" x="110.97" y="123.11" width="13.87" height="13.68"/><rect class="cls-1" x="110.97" y="109.44" width="13.87" height="13.67"/><rect class="cls-1" x="110.97" y="95.75" width="13.87" height="13.68"/><rect class="cls-1" x="110.97" y="82.08" width="13.87" height="13.67"/><rect class="cls-1" x="110.97" y="68.39" width="13.87" height="13.68"/><rect class="cls-1" x="110.97" y="54.72" width="13.87" height="13.67"/><rect class="cls-1" x="110.97" y="41.03" width="13.87" height="13.68"/><rect class="cls-1" x="110.97" y="27.36" width="13.87" height="13.67"/><rect class="cls-1" x="110.97" y="13.67" width="13.87" height="13.68"/><rect class="cls-1" x="110.97" width="13.87" height="13.67"/><rect class="cls-1" x="97.1" y="506.13" width="13.87" height="13.68"/><rect class="cls-1" x="97.1" y="492.46" width="13.87" height="13.67"/><rect class="cls-1" x="97.1" y="478.77" width="13.87" height="13.68"/><rect class="cls-1" x="97.1" y="465.1" width="13.87" height="13.67"/><rect class="cls-1" x="97.1" y="451.41" width="13.87" height="13.68"/><rect class="cls-1" x="97.1" y="437.74" width="13.87" height="13.67"/><rect class="cls-1" x="97.1" y="424.06" width="13.87" height="13.68"/><rect class="cls-1" x="97.1" y="410.38" width="13.87" height="13.67"/><rect class="cls-1" x="97.1" y="396.7" width="13.87" height="13.68"/><rect class="cls-1" x="97.1" y="383.02" width="13.87" height="13.67"/><rect class="cls-1" x="97.1" y="369.34" width="13.87" height="13.68"/><rect class="cls-1" x="97.1" y="355.66" width="13.87" height="13.67"/><rect class="cls-1" x="97.1" y="341.98" width="13.87" height="13.68"/><rect class="cls-1" x="97.1" y="328.31" width="13.87" height="13.67"/><rect class="cls-1" x="97.1" y="314.62" width="13.87" height="13.68"/><rect class="cls-1" x="97.1" y="300.95" width="13.87" height="13.67"/><rect class="cls-1" x="97.1" y="287.26" width="13.87" height="13.68"/><rect class="cls-1" x="97.1" y="273.59" width="13.87" height="13.67"/><rect class="cls-1" x="97.1" y="259.9" width="13.87" height="13.68"/><rect class="cls-1" x="97.1" y="246.23" width="13.87" height="13.67"/><rect class="cls-1" x="97.1" y="232.54" width="13.87" height="13.68"/><rect class="cls-1" x="97.1" y="218.87" width="13.87" height="13.67"/><rect class="cls-1" x="97.1" y="205.19" width="13.87" height="13.68"/><rect class="cls-1" x="97.1" y="191.51" width="13.87" height="13.67"/><rect class="cls-1" x="97.1" y="177.83" width="13.87" height="13.68"/><rect class="cls-1" x="97.1" y="164.15" width="13.87" height="13.67"/><rect class="cls-1" x="97.1" y="150.47" width="13.87" height="13.68"/><rect class="cls-1" x="97.1" y="136.79" width="13.87" height="13.67"/><rect class="cls-1" x="97.1" y="123.11" width="13.87" height="13.68"/><rect class="cls-1" x="97.1" y="109.44" width="13.87" height="13.67"/><rect class="cls-1" x="97.1" y="95.75" width="13.87" height="13.68"/><rect class="cls-1" x="97.1" y="82.08" width="13.87" height="13.67"/><rect class="cls-1" x="97.1" y="68.39" width="13.87" height="13.68"/><rect class="cls-1" x="97.1" y="54.72" width="13.87" height="13.67"/><rect class="cls-1" x="97.1" y="41.03" width="13.87" height="13.68"/><rect class="cls-1" x="97.1" y="27.36" width="13.87" height="13.67"/><rect class="cls-1" x="97.1" y="13.67" width="13.87" height="13.68"/><rect class="cls-1" x="97.1" width="13.87" height="13.67"/><rect class="cls-1" x="83.23" y="533.5" width="13.87" height="13.67"/><rect class="cls-1" x="83.23" y="519.82" width="13.87" height="13.68"/><rect class="cls-1" x="83.23" y="506.13" width="13.87" height="13.68"/><rect class="cls-1" x="83.23" y="492.46" width="13.87" height="13.67"/><rect class="cls-1" x="83.23" y="478.77" width="13.87" height="13.68"/><rect class="cls-1" x="83.23" y="465.1" width="13.87" height="13.67"/><rect class="cls-1" x="83.23" y="451.41" width="13.87" height="13.68"/><rect class="cls-1" x="83.23" y="437.74" width="13.87" height="13.67"/><rect class="cls-1" x="83.23" y="424.06" width="13.87" height="13.68"/><rect class="cls-1" x="83.23" y="410.38" width="13.87" height="13.67"/><rect class="cls-1" x="83.23" y="396.7" width="13.87" height="13.68"/><rect class="cls-1" x="83.23" y="383.02" width="13.87" height="13.67"/><rect class="cls-1" x="83.23" y="369.34" width="13.87" height="13.68"/><rect class="cls-1" x="83.23" y="355.66" width="13.87" height="13.67"/><rect class="cls-1" x="83.23" y="341.98" width="13.87" height="13.68"/><rect class="cls-1" x="83.23" y="328.31" width="13.87" height="13.67"/><rect class="cls-1" x="83.23" y="314.62" width="13.87" height="13.68"/><rect class="cls-1" x="83.23" y="300.95" width="13.87" height="13.67"/><rect class="cls-1" x="83.23" y="287.26" width="13.87" height="13.68"/><rect class="cls-1" x="83.23" y="273.59" width="13.87" height="13.67"/><rect class="cls-1" x="83.23" y="259.9" width="13.87" height="13.68"/><rect class="cls-1" x="83.23" y="246.23" width="13.87" height="13.67"/><rect class="cls-1" x="83.23" y="232.54" width="13.87" height="13.68"/><rect class="cls-1" x="83.23" y="218.87" width="13.87" height="13.67"/><rect class="cls-1" x="83.23" y="205.19" width="13.87" height="13.68"/><rect class="cls-1" x="83.23" y="191.51" width="13.87" height="13.67"/><rect class="cls-1" x="83.23" y="177.83" width="13.87" height="13.68"/><rect class="cls-1" x="83.23" y="164.15" width="13.87" height="13.67"/><rect class="cls-1" x="83.23" y="150.47" width="13.87" height="13.68"/><rect class="cls-1" x="83.23" y="136.79" width="13.87" height="13.67"/><rect class="cls-1" x="83.23" y="123.11" width="13.87" height="13.68"/><rect class="cls-1" x="83.23" y="109.44" width="13.87" height="13.67"/><rect class="cls-1" x="83.23" y="95.75" width="13.87" height="13.68"/><rect class="cls-1" x="83.23" y="82.08" width="13.87" height="13.67"/><rect class="cls-1" x="83.23" y="68.39" width="13.87" height="13.68"/><rect class="cls-1" x="83.23" y="54.72" width="13.87" height="13.67"/><rect class="cls-1" x="83.23" y="41.03" width="13.87" height="13.68"/><rect class="cls-1" x="83.23" y="27.36" width="13.87" height="13.67"/><rect class="cls-1" x="83.23" y="13.67" width="13.87" height="13.68"/><rect class="cls-1" x="69.36" y="670.3" width="13.87" height="13.67"/><rect class="cls-1" x="69.36" y="560.86" width="13.87" height="13.67"/><rect class="cls-1" x="69.36" y="547.18" width="13.87" height="13.68"/><rect class="cls-1" x="69.36" y="533.5" width="13.87" height="13.67"/><rect class="cls-1" x="69.36" y="519.82" width="13.87" height="13.68"/><rect class="cls-1" x="69.36" y="506.13" width="13.87" height="13.68"/><rect class="cls-1" x="69.36" y="492.46" width="13.87" height="13.67"/><rect class="cls-1" x="69.36" y="478.77" width="13.87" height="13.68"/><rect class="cls-1" x="69.36" y="465.1" width="13.87" height="13.67"/><rect class="cls-1" x="69.36" y="451.41" width="13.87" height="13.68"/><rect class="cls-1" x="69.36" y="424.06" width="13.87" height="13.68"/><rect class="cls-1" x="69.36" y="410.38" width="13.87" height="13.67"/><rect class="cls-1" x="69.36" y="396.7" width="13.87" height="13.68"/><rect class="cls-1" x="69.36" y="383.02" width="13.87" height="13.67"/><rect class="cls-1" x="69.36" y="369.34" width="13.87" height="13.68"/><rect class="cls-1" x="69.36" y="355.66" width="13.87" height="13.67"/><rect class="cls-1" x="69.36" y="341.98" width="13.87" height="13.68"/><rect class="cls-1" x="69.36" y="328.31" width="13.87" height="13.67"/><rect class="cls-1" x="69.36" y="287.26" width="13.87" height="13.68"/><rect class="cls-1" x="69.36" y="273.59" width="13.87" height="13.67"/><rect class="cls-1" x="69.36" y="259.9" width="13.87" height="13.68"/><rect class="cls-1" x="69.36" y="246.23" width="13.87" height="13.67"/><rect class="cls-1" x="69.36" y="232.54" width="13.87" height="13.68"/><rect class="cls-1" x="69.36" y="218.87" width="13.87" height="13.67"/><rect class="cls-1" x="69.36" y="205.19" width="13.87" height="13.68"/><rect class="cls-1" x="69.36" y="191.51" width="13.87" height="13.67"/><rect class="cls-1" x="69.36" y="177.83" width="13.87" height="13.68"/><rect class="cls-1" x="69.36" y="164.15" width="13.87" height="13.67"/><rect class="cls-1" x="69.36" y="109.44" width="13.87" height="13.67"/><rect class="cls-1" x="69.36" y="95.75" width="13.87" height="13.68"/><rect class="cls-1" x="69.36" y="82.08" width="13.87" height="13.67"/><rect class="cls-1" x="69.36" y="68.39" width="13.87" height="13.68"/><rect class="cls-1" x="69.36" y="54.72" width="13.87" height="13.67"/><rect class="cls-1" x="69.36" y="41.03" width="13.87" height="13.68"/><rect class="cls-1" x="69.36" y="27.36" width="13.87" height="13.67"/><rect class="cls-1" x="55.49" y="670.3" width="13.87" height="13.67"/><rect class="cls-1" x="55.49" y="656.61" width="13.87" height="13.68"/><rect class="cls-1" x="55.49" y="601.89" width="13.87" height="13.68"/><rect class="cls-1" x="55.49" y="588.22" width="13.87" height="13.67"/><rect class="cls-1" x="55.49" y="574.53" width="13.87" height="13.68"/><rect class="cls-1" x="55.49" y="560.86" width="13.87" height="13.67"/><rect class="cls-1" x="55.49" y="547.18" width="13.87" height="13.68"/><rect class="cls-1" x="55.49" y="533.5" width="13.87" height="13.67"/><rect class="cls-1" x="55.49" y="519.82" width="13.87" height="13.68"/><rect class="cls-1" x="55.49" y="506.13" width="13.87" height="13.68"/><rect class="cls-1" x="55.49" y="492.46" width="13.87" height="13.67"/><rect class="cls-1" x="55.49" y="478.77" width="13.87" height="13.68"/><rect class="cls-1" x="55.49" y="259.9" width="13.87" height="13.68"/><rect class="cls-1" x="55.49" y="246.23" width="13.87" height="13.67"/><rect class="cls-1" x="55.49" y="232.54" width="13.87" height="13.68"/><rect class="cls-1" x="55.49" y="218.87" width="13.87" height="13.67"/><rect class="cls-1" x="55.49" y="205.19" width="13.87" height="13.68"/><rect class="cls-1" x="55.49" y="191.51" width="13.87" height="13.67"/><rect class="cls-1" x="55.49" y="177.83" width="13.87" height="13.68"/><rect class="cls-1" x="55.49" y="164.15" width="13.87" height="13.67"/><rect class="cls-1" x="55.49" y="95.75" width="13.87" height="13.68"/><rect class="cls-1" x="55.49" y="82.08" width="13.87" height="13.67"/><rect class="cls-1" x="55.49" y="68.39" width="13.87" height="13.68"/><rect class="cls-1" x="55.49" y="54.72" width="13.87" height="13.67"/><rect class="cls-1" x="55.49" y="41.03" width="13.87" height="13.68"/><rect class="cls-1" x="41.62" y="670.3" width="13.87" height="13.67"/><rect class="cls-1" x="41.62" y="656.61" width="13.87" height="13.68"/><rect class="cls-1" x="41.62" y="642.94" width="13.87" height="13.67"/><rect class="cls-1" x="41.62" y="629.25" width="13.87" height="13.68"/><rect class="cls-1" x="41.62" y="615.58" width="13.87" height="13.67"/><rect class="cls-1" x="41.62" y="601.89" width="13.87" height="13.68"/><rect class="cls-1" x="41.62" y="588.22" width="13.87" height="13.67"/><rect class="cls-1" x="41.62" y="574.53" width="13.87" height="13.68"/><rect class="cls-1" x="41.62" y="560.86" width="13.87" height="13.67"/><rect class="cls-1" x="41.62" y="547.18" width="13.87" height="13.68"/><rect class="cls-1" x="41.62" y="533.5" width="13.87" height="13.67"/><rect class="cls-1" x="41.62" y="519.82" width="13.87" height="13.68"/><rect class="cls-1" x="41.62" y="424.06" width="13.87" height="13.68"/><rect class="cls-1" x="41.62" y="410.38" width="13.87" height="13.67"/><rect class="cls-1" x="41.62" y="396.7" width="13.87" height="13.68"/><rect class="cls-1" x="41.62" y="369.34" width="13.87" height="13.68"/><rect class="cls-1" x="41.62" y="355.66" width="13.87" height="13.67"/><rect class="cls-1" x="41.62" y="341.98" width="13.87" height="13.68"/><rect class="cls-1" x="41.62" y="328.31" width="13.87" height="13.67"/><rect class="cls-1" x="41.62" y="314.62" width="13.87" height="13.68"/><rect class="cls-1" x="41.62" y="300.95" width="13.87" height="13.67"/><rect class="cls-1" x="41.62" y="287.26" width="13.87" height="13.68"/><rect class="cls-1" x="41.62" y="273.59" width="13.87" height="13.67"/><rect class="cls-1" x="41.62" y="259.9" width="13.87" height="13.68"/><rect class="cls-1" x="41.62" y="246.23" width="13.87" height="13.67"/><rect class="cls-1" x="41.62" y="232.54" width="13.87" height="13.68"/><rect class="cls-1" x="41.62" y="218.87" width="13.87" height="13.67"/><rect class="cls-1" x="41.62" y="205.19" width="13.87" height="13.68"/><rect class="cls-1" x="41.62" y="191.51" width="13.87" height="13.67"/><rect class="cls-1" x="41.62" y="177.83" width="13.87" height="13.68"/><rect class="cls-1" x="41.62" y="82.08" width="13.87" height="13.67"/><rect class="cls-1" x="41.62" y="68.39" width="13.87" height="13.68"/><rect class="cls-1" x="41.62" y="54.72" width="13.87" height="13.67"/><rect class="cls-1" x="27.74" y="670.3" width="13.87" height="13.67"/><rect class="cls-1" x="27.74" y="656.61" width="13.87" height="13.68"/><rect class="cls-1" x="27.74" y="642.94" width="13.87" height="13.67"/><rect class="cls-1" x="27.74" y="629.25" width="13.87" height="13.68"/><rect class="cls-1" x="27.74" y="615.58" width="13.87" height="13.67"/><rect class="cls-1" x="27.74" y="601.89" width="13.87" height="13.68"/><rect class="cls-1" x="27.74" y="588.22" width="13.87" height="13.67"/><rect class="cls-1" x="27.74" y="574.53" width="13.87" height="13.68"/><rect class="cls-1" x="27.74" y="560.86" width="13.87" height="13.67"/><rect class="cls-1" x="27.74" y="547.18" width="13.87" height="13.68"/><rect class="cls-1" x="27.74" y="437.74" width="13.87" height="13.67"/><rect class="cls-1" x="27.74" y="424.06" width="13.87" height="13.68"/><rect class="cls-1" x="27.74" y="410.38" width="13.87" height="13.67"/><rect class="cls-1" x="27.74" y="396.7" width="13.87" height="13.68"/><rect class="cls-1" x="27.74" y="383.02" width="13.87" height="13.67"/><rect class="cls-1" x="27.74" y="369.34" width="13.87" height="13.68"/><rect class="cls-1" x="27.74" y="355.66" width="13.87" height="13.67"/><rect class="cls-1" x="27.74" y="341.98" width="13.87" height="13.68"/><rect class="cls-1" x="27.74" y="328.31" width="13.87" height="13.67"/><rect class="cls-1" x="27.74" y="314.62" width="13.87" height="13.68"/><rect class="cls-1" x="27.74" y="300.95" width="13.87" height="13.67"/><rect class="cls-1" x="27.74" y="287.26" width="13.87" height="13.68"/><rect class="cls-1" x="27.74" y="273.59" width="13.87" height="13.67"/><rect class="cls-1" x="27.74" y="259.9" width="13.87" height="13.68"/><rect class="cls-1" x="27.74" y="246.23" width="13.87" height="13.67"/><rect class="cls-1" x="27.74" y="232.54" width="13.87" height="13.68"/><rect class="cls-1" x="27.74" y="218.87" width="13.87" height="13.67"/><rect class="cls-1" x="27.74" y="205.19" width="13.87" height="13.68"/><rect class="cls-1" x="27.74" y="68.39" width="13.87" height="13.68"/><rect class="cls-1" x="13.87" y="670.3" width="13.87" height="13.67"/><rect class="cls-1" x="13.87" y="656.61" width="13.87" height="13.68"/><rect class="cls-1" x="13.87" y="642.94" width="13.87" height="13.67"/><rect class="cls-1" x="13.87" y="629.25" width="13.87" height="13.68"/><rect class="cls-1" x="13.87" y="615.58" width="13.87" height="13.67"/><rect class="cls-1" x="13.87" y="601.89" width="13.87" height="13.68"/><rect class="cls-1" x="13.87" y="588.22" width="13.87" height="13.67"/><rect class="cls-1" x="13.87" y="574.53" width="13.87" height="13.68"/><rect class="cls-1" x="13.87" y="437.74" width="13.87" height="13.67"/><rect class="cls-1" x="13.87" y="424.06" width="13.87" height="13.68"/><rect class="cls-1" x="13.87" y="410.38" width="13.87" height="13.67"/><rect class="cls-1" x="13.87" y="396.7" width="13.87" height="13.68"/><rect class="cls-1" x="13.87" y="383.02" width="13.87" height="13.67"/><rect class="cls-1" x="13.87" y="369.34" width="13.87" height="13.68"/><rect class="cls-1" x="13.87" y="355.66" width="13.87" height="13.67"/><rect class="cls-1" x="13.87" y="341.98" width="13.87" height="13.68"/><rect class="cls-1" x="13.87" y="328.31" width="13.87" height="13.67"/><rect class="cls-1" x="13.87" y="314.62" width="13.87" height="13.68"/><rect class="cls-1" x="13.87" y="300.95" width="13.87" height="13.67"/><rect class="cls-1" x="13.87" y="287.26" width="13.87" height="13.68"/><rect class="cls-1" x="13.87" y="273.59" width="13.87" height="13.67"/><rect class="cls-1" x="13.87" y="259.9" width="13.87" height="13.68"/><rect class="cls-1" x="13.87" y="246.23" width="13.87" height="13.67"/><rect class="cls-1" x="13.87" y="232.54" width="13.87" height="13.68"/><rect class="cls-1" y="670.3" width="13.87" height="13.67"/><rect class="cls-1" y="656.61" width="13.87" height="13.68"/><rect class="cls-1" y="642.94" width="13.87" height="13.67"/><rect class="cls-1" y="424.06" width="13.87" height="13.68"/><rect class="cls-1" y="410.38" width="13.87" height="13.67"/><rect class="cls-1" y="369.34" width="13.87" height="13.68"/><rect class="cls-1" y="355.66" width="13.87" height="13.67"/><rect class="cls-1" y="341.98" width="13.87" height="13.68"/><rect class="cls-1" y="328.31" width="13.87" height="13.67"/><rect class="cls-1" y="314.62" width="13.87" height="13.68"/><rect class="cls-1" y="300.95" width="13.87" height="13.67"/><rect class="cls-1" y="287.26" width="13.87" height="13.68"/><rect class="cls-1" y="273.59" width="13.87" height="13.67"/></g></g></svg>